<svg xmlns="http://www.w3.org/2000/svg" viewBox="0 0 512 512"><title>computer network-networking-computing-network-share</title><g id="Filled_outline" data-name="Filled outline"><rect x="208" y="24" width="96" height="64" rx="8" ry="8" style="fill:#348ed8"/><polygon points="280 120 232 120 240 88 272 88 280 120" style="fill:#d5d5d3"/><polygon points="276 104 236 104 240 88 272 88 276 104" style="fill:#cececc"/><rect x="392" y="120" width="96" height="64" rx="8" ry="8" style="fill:#348ed8"/><polygon points="464 216 416 216 424 184 456 184 464 216" style="fill:#d5d5d3"/><polygon points="460 200 420 200 424 184 456 184 460 200" style="fill:#cececc"/><rect x="24" y="120" width="96" height="64" rx="8" ry="8" style="fill:#348ed8"/><polygon points="96 216 48 216 56 184 88 184 96 216" style="fill:#d5d5d3"/><polygon points="92 200 52 200 56 184 88 184 92 200" style="fill:#cececc"/><rect x="392" y="312" width="96" height="64" rx="8" ry="8" style="fill:#348ed8"/><polygon points="464 408 416 408 424 376 456 376 464 408" style="fill:#d5d5d3"/><polygon points="460 392 420 392 424 376 456 376 460 392" style="fill:#cececc"/><rect x="24" y="312" width="96" height="64" rx="8" ry="8" style="fill:#348ed8"/><polygon points="96 408 48 408 56 376 88 376 96 408" style="fill:#d5d5d3"/><polygon points="92 392 52 392 56 376 88 376 92 392" style="fill:#cececc"/><rect x="208" y="392" width="96" height="64" rx="8" ry="8" style="fill:#348ed8"/><polygon points="280 488 232 488 240 456 272 456 280 488" style="fill:#d5d5d3"/><polygon points="276 472 236 472 240 456 272 456 276 472" style="fill:#cececc"/><rect x="208" y="208" width="96" height="64" rx="8" ry="8" style="fill:#348ed8"/><polygon points="280 304 232 304 240 272 272 272 280 304" style="fill:#d5d5d3"/><polygon points="276 288 236 288 240 272 272 272 276 288" style="fill:#cececc"/><path d="M296,200H216a16.019,16.019,0,0,0-16,16v48a16.019,16.019,0,0,0,16,16h21.754l-4,16H224v16h64V296h-9.754l-4-16H296a16.019,16.019,0,0,0,16-16V216A16.019,16.019,0,0,0,296,200Zm-34.246,96H250.246l4-16h3.508ZM296,264H216V216h80l.01,48ZM32,192H53.754l-4,16H40v16h64V208H94.246l-4-16H112a16.019,16.019,0,0,0,16-16V128a16.019,16.019,0,0,0-16-16H32a16.019,16.019,0,0,0-16,16v8H32v-8h80v48H32V152H16v24A16.019,16.019,0,0,0,32,192Zm41.754,0,4,16H66.246l4-16ZM296,16H216a16.019,16.019,0,0,0-16,16V80a16.019,16.019,0,0,0,16,16h21.754l-4,16H224v16h64V112h-9.754l-4-16H296a16.019,16.019,0,0,0,16-16V32A16.019,16.019,0,0,0,296,16Zm-34.246,96H250.246l4-16h3.508ZM296,80H216V32h80l.01,48Zm0,304H216a16.019,16.019,0,0,0-16,16v48a16.019,16.019,0,0,0,16,16h21.754l-4,16H224v16h64V480h-9.754l-4-16H296a16.019,16.019,0,0,0,16-16V400A16.019,16.019,0,0,0,296,384Zm-34.246,96H250.246l4-16h3.508ZM296,448H216V400h80l.01,48ZM112,384a16.019,16.019,0,0,0,16-16V320a16.019,16.019,0,0,0-16-16H32a16.019,16.019,0,0,0-16,16v48a16.019,16.019,0,0,0,16,16H53.754l-4,16H40v16h64V400H94.246l-4-16ZM32,320h80l.01,48H32Zm45.754,80H66.246l4-16h3.508ZM480,112H400a16.019,16.019,0,0,0-16,16v48a16.019,16.019,0,0,0,16,16h21.754l-4,16H408v16h64V208h-9.754l-4-16H480a16.019,16.019,0,0,0,16-16V128A16.019,16.019,0,0,0,480,112Zm-34.246,96H434.246l4-16h3.508ZM480,176H400V128h80l.01,48Zm0,128H400a16.019,16.019,0,0,0-16,16v48a16.019,16.019,0,0,0,16,16h21.754l-4,16H408v16h64V400h-9.754l-4-16H480a16.019,16.019,0,0,0,16-16V352H480v16H400V320h80v16h16V320A16.019,16.019,0,0,0,480,304Zm-38.246,80,4,16H434.246l4-16ZM264,144v40H248V144ZM149,177.753l40,32-10,12.494-40-32Zm38.564,127.591,8.875,13.312-48,32-8.875-13.312ZM333,222.247l-10-12.494,40-32,10,12.494Zm30.564,128.409-48-32,8.875-13.312,48,32ZM264,328v40H248V328ZM64,288V240H80v48Zm60.24-185.216-8.48-13.568,64-40,8.48,13.568Zm0,322.432,64,40-8.48,13.568-64-40ZM387.76,102.784l-64-40,8.48-13.568,64,40Zm0,322.432,8.48,13.568-64,40-8.48-13.568ZM448,240v48H432V240Z"/></g></svg>